<?xml version="1.0" encoding="UTF-8"?>
<svg id="Capa_2" data-name="Capa 2" xmlns="http://www.w3.org/2000/svg" viewBox="0 0 17.48 17.48">
  <defs>
    <style>
      .cls-1 {
        fill: #fb0;
      }

      .cls-2 {
        fill: #1d1d1b;
      }
    </style>
  </defs>
  <g id="Capa_1-2" data-name="Capa 1">
    <g>
      <rect class="cls-2" width="17.48" height="17.48" rx="4.32" ry="4.32"/>
      <path class="cls-1" d="M8.74,5.32c.2-.25.44-.48.72-.68.12-.09.25-.17.4-.25s.31-.16.49-.22.37-.12.57-.16.42-.06.66-.06c.46,0,.88.08,1.25.24s.69.38.94.67.46.62.59,1,.21.79.21,1.22c0,.41-.08.82-.25,1.22s-.38.79-.66,1.17-.58.74-.93,1.09-.71.67-1.07.97-.72.57-1.07.82-.66.45-.93.63-.5.31-.67.4-.25.14-.26.14-.06-.03-.17-.09-.26-.15-.45-.26-.41-.25-.65-.42-.51-.35-.79-.55-.57-.43-.86-.67-.58-.5-.86-.77-.54-.55-.79-.85-.46-.6-.65-.91-.33-.63-.44-.95-.16-.65-.16-.98c0-.43.07-.84.21-1.22s.33-.71.59-1,.57-.51.94-.67.79-.24,1.25-.24c.23,0,.45.02.66.06s.4.09.57.16.34.14.49.22.28.17.4.25c.28.2.52.43.71.68Z"/>
    </g>
  </g>
</svg>