<?xml version="1.0" encoding="UTF-8"?>
<svg id="Capa_2" xmlns="http://www.w3.org/2000/svg" version="1.1" viewBox="0 0 25 25">
  <!-- Generator: Adobe Illustrator 29.7.1, SVG Export Plug-In . SVG Version: 2.1.1 Build 8)  -->
  <defs>
    <style>
      .st0 {
        fill: #fb0;
      }

      .st1 {
        fill: #1d1d1b;
      }
    </style>
  </defs>
  <g id="Capa_1-2">
    <g>
      <rect class="st1" y="0" width="25" height="25" rx="6.2" ry="6.2"/>
      <path class="st0" d="M12.5,7.6c.3-.4.6-.7,1-1,.2-.1.4-.2.6-.4s.4-.2.7-.3.5-.2.8-.2.6,0,.9,0c.7,0,1.3.1,1.8.3s1,.5,1.3,1,.7.9.8,1.4.3,1.1.3,1.7-.1,1.2-.4,1.7c-.2.6-.5,1.1-.9,1.7s-.8,1.1-1.3,1.6-1,1-1.5,1.4-1,.8-1.5,1.2-.9.6-1.3.9-.7.4-1,.6-.4.2-.4.2,0,0-.2-.1-.4-.2-.6-.4-.6-.4-.9-.6-.7-.5-1.1-.8-.8-.6-1.2-1-.8-.7-1.2-1.1-.8-.8-1.1-1.2-.7-.9-.9-1.3-.5-.9-.6-1.4-.2-.9-.2-1.4.1-1.2.3-1.7.5-1,.8-1.4.8-.7,1.3-1,1.1-.3,1.8-.3.6,0,.9,0c.3,0,.6.1.8.2s.5.2.7.3.4.2.6.4c.4.3.7.6,1,1h0Z"/>
    </g>
  </g>
</svg>