<?xml version="1.0" encoding="UTF-8"?>
<svg id="Capa_2" data-name="Capa 2" xmlns="http://www.w3.org/2000/svg" viewBox="0 0 32 32">
  <defs>
    <style>
      .cls-1 {
        fill: #fff;
      }

      .cls-2 {
        fill: #1d1d1b;
      }

      .cls-3 {
        fill: #ffb000;
      }
    </style>
  </defs>
  <g id="Capa_1-2" data-name="Capa 1">
    <g>
      <rect class="cls-2" width="32" height="32"/>
      <g>
        <path class="cls-1" d="M4.16,29.06c.68-.18,2.77-.61,2.97-1.18.21-.58.31-1.31.31-2.19v-12.69c0-.63-.1-1.21-.31-1.73-.21-.52-1.38-1.04-1.99-1.39v-.29h8.79v14.45c0,2.05-.72,3.46-2.15,4.21s-4.94,1.59-7.42,1.59l-.2-.78Z"/>
        <path class="cls-3" d="M8.89,7.34c-.51-.51-.77-1.13-.77-1.85s.26-1.31.77-1.82,1.13-.77,1.85-.77,1.33.26,1.84.77c.5.51.76,1.12.76,1.82s-.25,1.34-.76,1.85-1.12.77-1.84.77-1.34-.26-1.85-.77Z"/>
        <path class="cls-1" d="M15.82,23.88c.61-.34,1.02-.77,1.23-1.3.21-.52.31-1.1.31-1.73v-9.74h-.97v-1.52h.97v-1.19c0-1.21.39-2.18,1.17-2.93.78-.75,1.8-1.31,3.04-1.69.81-.27,1.74-.5,2.57-.63,1.44-.23,3.29-.23,3.9-.23v1.18c-.56,0-2.6.1-3.46.53-.54.27-.75.38-.75,1.31v3.65h2.02v1.52h-2.02v9.74c0,.65.1,1.23.31,1.74.21.51.62.94,1.23,1.28v.38h-9.56v-.38Z"/>
      </g>
    </g>
  </g>
</svg>