<?xml version="1.0" encoding="UTF-8"?>
<svg id="Capa_2" xmlns="http://www.w3.org/2000/svg" version="1.1" viewBox="0 0 25 25">
  <!-- Generator: Adobe Illustrator 29.7.1, SVG Export Plug-In . SVG Version: 2.1.1 Build 8)  -->
  <defs>
    <style>
      .st0 {
        fill: #fb0;
      }

      .st1 {
        fill: #1d1d1b;
      }
    </style>
  </defs>
  <g id="Capa_1-2">
    <g>
      <rect class="st1" y="0" width="25" height="25" rx="6.2" ry="6.2"/>
      <path class="st0" d="M12.3,12.8l-7.2-5.3v-.4c0-.2,0-.4.2-.5s.3-.2.5-.2h13.4c.4,0,.7.2.7.6v.4l-7.2,5.3h-.4ZM12.5,14.9c.1,0,.2,0,.3,0s.1,0,.2,0,.1,0,.2-.1l6.7-5v8.2c0,.1,0,.2,0,.3s-.1.2-.2.3-.2.1-.3.2-.2,0-.3,0H5.9c-.1,0-.2,0-.3,0s-.2-.1-.3-.2-.1-.2-.2-.3,0-.2,0-.3v-8.2l6.7,5s.1,0,.2.1c0,0,.1,0,.2,0s.2,0,.3,0Z"/>
    </g>
  </g>
</svg>