<?xml version="1.0" encoding="UTF-8"?>
<svg id="Capa_2" data-name="Capa 2" xmlns="http://www.w3.org/2000/svg" viewBox="0 0 17.48 17.48">
  <defs>
    <style>
      .cls-1 {
        fill: #fb0;
      }

      .cls-2 {
        fill: #1d1d1b;
      }
    </style>
  </defs>
  <g id="Capa_1-2" data-name="Capa 1">
    <g>
      <rect class="cls-2" width="17.48" height="17.48" rx="4.32" ry="4.32"/>
      <path class="cls-1" d="M8.59,8.92l-5-3.73v-.3c0-.15.04-.26.11-.33s.19-.11.35-.11h9.37c.31,0,.46.15.46.45v.3l-5,3.73h-.29ZM8.73,10.39c.07,0,.13,0,.19-.02s.1-.03.14-.05c.04-.02.08-.04.12-.08l4.7-3.5v5.72c0,.07-.02.15-.05.22s-.08.13-.13.18-.11.09-.18.13-.14.05-.21.05H4.16c-.07,0-.15-.02-.21-.05s-.13-.07-.18-.13-.09-.11-.13-.18-.05-.14-.05-.22v-5.72l4.7,3.5s.07.06.11.08c.04.02.09.04.14.05s.12.02.19.02Z"/>
    </g>
  </g>
</svg>