<?xml version="1.0" encoding="UTF-8"?>
<svg id="Capa_2" xmlns="http://www.w3.org/2000/svg" version="1.1" viewBox="0 0 25 25">
  <!-- Generator: Adobe Illustrator 29.7.1, SVG Export Plug-In . SVG Version: 2.1.1 Build 8)  -->
  <defs>
    <style>
      .st0 {
        fill: #fb0;
      }

      .st1 {
        fill: #1d1d1b;
      }
    </style>
  </defs>
  <g id="Capa_1-2">
    <g>
      <rect class="st1" y="0" width="25" height="25" rx="6.2" ry="6.2"/>
      <path class="st0" d="M20.4,10.3c.1.1.2.3.2.4s0,.3-.2.4l-.4.4s-.1,0-.3,0-.3,0-.5,0-.4,0-.5-.1-.3-.1-.5-.2-.2-.1-.3-.2l-4.3,4.3c.2.3.4.6.5.9s.2.7.2,1-.1.9-.3,1.4-.5.9-.9,1.3l-3.6-3.7-2.4,2.4-2.2,1.6s0,0-.1,0,0,0-.1,0c0,0,0,0,0-.1s0,0,0-.1l1.6-2.2,2.4-2.4-3.6-3.6c.4-.4.8-.7,1.3-.9s.9-.3,1.4-.3.7,0,1,.2.6.3.9.5l4.3-4.3s-.1-.1-.1-.3-.1-.3-.2-.5,0-.3-.1-.5,0-.3,0-.5,0-.1,0-.2,0-.1,0-.1l.4-.4c.1-.1.3-.2.4-.2s.3,0,.4.2l5.7,5.7h0Z"/>
    </g>
  </g>
</svg>