<?xml version="1.0" encoding="UTF-8"?>
<svg id="Capa_2" data-name="Capa 2" xmlns="http://www.w3.org/2000/svg" viewBox="0 0 17.48 17.48">
  <defs>
    <style>
      .cls-1 {
        fill: #fb0;
      }

      .cls-2 {
        fill: #1d1d1b;
      }
    </style>
  </defs>
  <g id="Capa_1-2" data-name="Capa 1">
    <g>
      <rect class="cls-2" width="17.48" height="17.48" rx="4.32" ry="4.32"/>
      <path class="cls-1" d="M14.23,7.23c.07.09.11.18.11.28s-.04.2-.11.28l-.29.29s-.09.04-.19.04-.2-.01-.33-.03-.25-.05-.38-.08-.23-.07-.33-.11-.16-.07-.19-.11l-3.04,3.04c.15.19.26.39.33.62s.11.46.11.7c0,.33-.07.66-.2.99s-.34.63-.61.9l-2.55-2.57-1.7,1.7-1.56,1.14s-.04.03-.08.03c-.04,0-.06,0-.07-.03-.02-.02-.03-.04-.03-.08,0-.03,0-.05.03-.07l1.12-1.56,1.71-1.7-2.54-2.55c.27-.27.57-.47.89-.61s.65-.2.98-.2c.24,0,.47.04.7.11s.43.19.62.33l3.04-3.03s-.07-.1-.1-.19-.07-.2-.11-.32-.06-.24-.08-.36-.03-.23-.03-.33c0-.05,0-.1.01-.14s.02-.07.04-.08l.27-.29c.08-.07.18-.11.29-.11s.2.04.28.11l3.98,3.98Z"/>
    </g>
  </g>
</svg>