<?xml version="1.0" encoding="UTF-8"?>
<svg id="Capa_2" xmlns="http://www.w3.org/2000/svg" version="1.1" viewBox="0 0 25 25">
  <!-- Generator: Adobe Illustrator 29.7.1, SVG Export Plug-In . SVG Version: 2.1.1 Build 8)  -->
  <defs>
    <style>
      .st0 {
        fill: #fb0;
      }

      .st1 {
        fill: #1d1d1b;
      }
    </style>
  </defs>
  <g id="Capa_1-2">
    <g>
      <rect class="st1" y="0" width="25" height="25" rx="6.2" ry="6.2"/>
      <path class="st0" d="M18.1,19.6c0,.1,0,.2,0,.4,0,.2,0,.3-.1.5s-.2.3-.4.3l-.8.4c-.3.1-.6.2-.9.3s-.6,0-.9,0c-.5,0-1,0-1.4-.2s-.9-.4-1.4-.7-.8-.7-1.2-1.1-.7-.9-1-1.4c-.2-.3-.4-.6-.6-1-.2-.3-.4-.7-.6-1.1s-.5-.9-.7-1.5c-.2-.5-.4-1-.6-1.4s-.2-.7-.3-1c0-.3-.2-.6-.2-.8-.1-.4-.2-.8-.3-1.2s0-.8,0-1.2,0-1,.2-1.5.3-.9.5-1.4.5-.8.8-1.1.7-.6,1.2-.8l.7-.3c.1,0,.2,0,.4,0s.3,0,.5.1.2.2.3.4l1.4,3.3c0,.1,0,.2,0,.4s0,.3-.1.5-.2.3-.4.3l-1.5.7c-.2,0-.3.2-.4.4s-.2.4-.2.6,0,.3,0,.4l2.4,5.5c.1.2.2.4.4.5s.3.2.5.2.3,0,.4,0l1.5-.7c.1,0,.2,0,.4,0s.3,0,.5.1.3.2.3.4l1.4,3.3h0Z"/>
    </g>
  </g>
</svg>