<?xml version="1.0" encoding="UTF-8"?>
<svg id="Capa_2" data-name="Capa 2" xmlns="http://www.w3.org/2000/svg" viewBox="0 0 17.48 17.48">
  <defs>
    <style>
      .cls-1 {
        fill: #fb0;
      }

      .cls-2 {
        fill: #1d1d1b;
      }
    </style>
  </defs>
  <g id="Capa_1-2" data-name="Capa 1">
    <g>
      <rect class="cls-2" x="0" width="17.48" height="17.48" rx="4.32" ry="4.32"/>
      <path class="cls-1" d="M12.69,13.7c.04.08.05.17.05.25,0,.12-.03.23-.09.33s-.15.18-.26.23l-.53.25c-.21.09-.41.16-.62.21s-.42.06-.63.06c-.34,0-.68-.06-1.01-.17s-.65-.28-.95-.49-.59-.47-.85-.76-.5-.63-.71-1c-.13-.2-.27-.44-.42-.7-.12-.22-.27-.49-.43-.8s-.32-.66-.49-1.03c-.17-.38-.3-.71-.4-.99s-.17-.52-.23-.71c-.06-.22-.11-.41-.13-.56-.09-.29-.15-.58-.19-.86s-.06-.57-.06-.85c0-.37.04-.72.11-1.06s.19-.66.34-.95.35-.55.58-.79.51-.42.83-.56l.52-.24c.08-.04.16-.05.25-.05.12,0,.23.03.33.1s.17.15.23.27l1,2.28c.04.08.05.16.05.25,0,.12-.03.23-.09.34s-.15.18-.26.23l-1.03.47c-.14.06-.24.15-.31.28s-.11.25-.11.39c0,.11.02.21.06.3l1.69,3.87c.07.15.16.26.28.33s.24.11.38.11c.09,0,.19-.02.29-.06l1.03-.47c.08-.04.16-.05.25-.05.11,0,.22.03.32.1s.18.15.23.27l1,2.28Z"/>
    </g>
  </g>
</svg>